<mxfile host="app.diagrams.net" modified="2024-02-11T20:48:27.082Z" agent="Mozilla/5.0 (Windows NT 10.0; Win64; x64) AppleWebKit/537.36 (KHTML, like Gecko) Chrome/121.0.0.0 Safari/537.36" etag="vp5dx_aG68NObHVaFjHY" version="23.1.1" type="device">
  <diagram name="Page-1" id="2YBvvXClWsGukQMizWep">
    <mxGraphModel dx="579" dy="617" grid="1" gridSize="10" guides="1" tooltips="1" connect="1" arrows="1" fold="1" page="1" pageScale="1" pageWidth="850" pageHeight="1100" math="0" shadow="0">
      <root>
        <mxCell id="0" />
        <mxCell id="1" parent="0" />
        <mxCell id="aM9ryv3xv72pqoxQDRHE-1" value="Auto" style="shape=umlLifeline;perimeter=lifelinePerimeter;whiteSpace=wrap;html=1;container=0;dropTarget=0;collapsible=0;recursiveResize=0;outlineConnect=0;portConstraint=eastwest;newEdgeStyle={&quot;edgeStyle&quot;:&quot;elbowEdgeStyle&quot;,&quot;elbow&quot;:&quot;vertical&quot;,&quot;curved&quot;:0,&quot;rounded&quot;:0};" parent="1" vertex="1">
          <mxGeometry x="40" y="40" width="100" height="300" as="geometry" />
        </mxCell>
        <mxCell id="aM9ryv3xv72pqoxQDRHE-2" value="" style="html=1;points=[];perimeter=orthogonalPerimeter;outlineConnect=0;targetShapes=umlLifeline;portConstraint=eastwest;newEdgeStyle={&quot;edgeStyle&quot;:&quot;elbowEdgeStyle&quot;,&quot;elbow&quot;:&quot;vertical&quot;,&quot;curved&quot;:0,&quot;rounded&quot;:0};" parent="aM9ryv3xv72pqoxQDRHE-1" vertex="1">
          <mxGeometry x="45" y="70" width="10" height="190" as="geometry" />
        </mxCell>
        <mxCell id="aM9ryv3xv72pqoxQDRHE-5" value="Motor" style="shape=umlLifeline;perimeter=lifelinePerimeter;whiteSpace=wrap;html=1;container=0;dropTarget=0;collapsible=0;recursiveResize=0;outlineConnect=0;portConstraint=eastwest;newEdgeStyle={&quot;edgeStyle&quot;:&quot;elbowEdgeStyle&quot;,&quot;elbow&quot;:&quot;vertical&quot;,&quot;curved&quot;:0,&quot;rounded&quot;:0};" parent="1" vertex="1">
          <mxGeometry x="240" y="40" width="100" height="300" as="geometry" />
        </mxCell>
        <mxCell id="aM9ryv3xv72pqoxQDRHE-6" value="" style="html=1;points=[];perimeter=orthogonalPerimeter;outlineConnect=0;targetShapes=umlLifeline;portConstraint=eastwest;newEdgeStyle={&quot;edgeStyle&quot;:&quot;elbowEdgeStyle&quot;,&quot;elbow&quot;:&quot;vertical&quot;,&quot;curved&quot;:0,&quot;rounded&quot;:0};" parent="aM9ryv3xv72pqoxQDRHE-5" vertex="1">
          <mxGeometry x="45" y="80" width="10" height="170" as="geometry" />
        </mxCell>
        <mxCell id="aM9ryv3xv72pqoxQDRHE-7" value="+Anlassen startet Motor" style="html=1;verticalAlign=bottom;endArrow=block;edgeStyle=elbowEdgeStyle;elbow=vertical;curved=0;rounded=0;" parent="1" source="nWTO159zbu1Q6PejPkmA-14" target="aM9ryv3xv72pqoxQDRHE-6" edge="1">
          <mxGeometry relative="1" as="geometry">
            <mxPoint x="195" y="130" as="sourcePoint" />
            <Array as="points">
              <mxPoint x="180" y="120" />
            </Array>
          </mxGeometry>
        </mxCell>
        <mxCell id="aM9ryv3xv72pqoxQDRHE-8" value="" style="html=1;verticalAlign=bottom;endArrow=open;dashed=1;endSize=8;edgeStyle=elbowEdgeStyle;elbow=vertical;curved=0;rounded=0;" parent="1" source="nWTO159zbu1Q6PejPkmA-18" target="aM9ryv3xv72pqoxQDRHE-1" edge="1">
          <mxGeometry x="-0.2105" y="100" relative="1" as="geometry">
            <mxPoint x="100" y="450" as="targetPoint" />
            <Array as="points" />
            <mxPoint x="290" y="450" as="sourcePoint" />
            <mxPoint x="1" as="offset" />
          </mxGeometry>
        </mxCell>
        <mxCell id="nWTO159zbu1Q6PejPkmA-1" value="Benzinpumpe" style="shape=umlLifeline;perimeter=lifelinePerimeter;whiteSpace=wrap;html=1;container=0;dropTarget=0;collapsible=0;recursiveResize=0;outlineConnect=0;portConstraint=eastwest;newEdgeStyle={&quot;edgeStyle&quot;:&quot;elbowEdgeStyle&quot;,&quot;elbow&quot;:&quot;vertical&quot;,&quot;curved&quot;:0,&quot;rounded&quot;:0};" parent="1" vertex="1">
          <mxGeometry x="440" y="40" width="100" height="300" as="geometry" />
        </mxCell>
        <mxCell id="nWTO159zbu1Q6PejPkmA-2" value="" style="html=1;points=[];perimeter=orthogonalPerimeter;outlineConnect=0;targetShapes=umlLifeline;portConstraint=eastwest;newEdgeStyle={&quot;edgeStyle&quot;:&quot;elbowEdgeStyle&quot;,&quot;elbow&quot;:&quot;vertical&quot;,&quot;curved&quot;:0,&quot;rounded&quot;:0};" parent="nWTO159zbu1Q6PejPkmA-1" vertex="1">
          <mxGeometry x="45" y="80" width="10" height="170" as="geometry" />
        </mxCell>
        <mxCell id="nWTO159zbu1Q6PejPkmA-3" value="Anlasser" style="shape=umlLifeline;perimeter=lifelinePerimeter;whiteSpace=wrap;html=1;container=0;dropTarget=0;collapsible=0;recursiveResize=0;outlineConnect=0;portConstraint=eastwest;newEdgeStyle={&quot;edgeStyle&quot;:&quot;elbowEdgeStyle&quot;,&quot;elbow&quot;:&quot;vertical&quot;,&quot;curved&quot;:0,&quot;rounded&quot;:0};" parent="1" vertex="1">
          <mxGeometry x="640" y="40" width="100" height="300" as="geometry" />
        </mxCell>
        <mxCell id="nWTO159zbu1Q6PejPkmA-4" value="" style="html=1;points=[];perimeter=orthogonalPerimeter;outlineConnect=0;targetShapes=umlLifeline;portConstraint=eastwest;newEdgeStyle={&quot;edgeStyle&quot;:&quot;elbowEdgeStyle&quot;,&quot;elbow&quot;:&quot;vertical&quot;,&quot;curved&quot;:0,&quot;rounded&quot;:0};" parent="nWTO159zbu1Q6PejPkmA-3" vertex="1">
          <mxGeometry x="45" y="80" width="10" height="170" as="geometry" />
        </mxCell>
        <mxCell id="nWTO159zbu1Q6PejPkmA-5" value="Starten" style="text;html=1;align=center;verticalAlign=middle;resizable=0;points=[];autosize=1;strokeColor=none;fillColor=none;" parent="1" vertex="1">
          <mxGeometry x="160" y="188" width="60" height="30" as="geometry" />
        </mxCell>
        <mxCell id="nWTO159zbu1Q6PejPkmA-8" value="" style="html=1;verticalAlign=bottom;endArrow=open;dashed=1;endSize=8;edgeStyle=elbowEdgeStyle;elbow=vertical;curved=0;rounded=0;" parent="1" source="aM9ryv3xv72pqoxQDRHE-5" target="aM9ryv3xv72pqoxQDRHE-5" edge="1">
          <mxGeometry x="-0.2105" y="100" relative="1" as="geometry">
            <mxPoint x="280" y="218.32999999999998" as="targetPoint" />
            <Array as="points">
              <mxPoint x="290" y="260" />
            </Array>
            <mxPoint x="380" y="200" as="sourcePoint" />
            <mxPoint x="1" as="offset" />
          </mxGeometry>
        </mxCell>
        <mxCell id="nWTO159zbu1Q6PejPkmA-10" value="Regeln" style="text;html=1;align=center;verticalAlign=middle;resizable=0;points=[];autosize=1;strokeColor=none;fillColor=none;" parent="1" vertex="1">
          <mxGeometry x="290" y="158" width="60" height="30" as="geometry" />
        </mxCell>
        <mxCell id="aM9ryv3xv72pqoxQDRHE-3" value="" style="html=1;verticalAlign=bottom;startArrow=oval;endArrow=block;startSize=8;edgeStyle=elbowEdgeStyle;elbow=vertical;curved=0;rounded=0;" parent="1" edge="1">
          <mxGeometry relative="1" as="geometry">
            <mxPoint x="35" y="510" as="sourcePoint" />
            <mxPoint x="95" y="530.0000000000001" as="targetPoint" />
            <Array as="points">
              <mxPoint x="50" y="530" />
            </Array>
          </mxGeometry>
        </mxCell>
        <mxCell id="nWTO159zbu1Q6PejPkmA-11" value="" style="endArrow=classic;html=1;rounded=0;" parent="1" edge="1" source="b6WKDw-HmWE7x-4iwqxq-1">
          <mxGeometry width="50" height="50" relative="1" as="geometry">
            <mxPoint x="490.11" y="230" as="sourcePoint" />
            <mxPoint x="289.9988888888889" y="230" as="targetPoint" />
          </mxGeometry>
        </mxCell>
        <mxCell id="nWTO159zbu1Q6PejPkmA-12" value="Pumpen" style="edgeLabel;html=1;align=center;verticalAlign=middle;resizable=0;points=[];" parent="nWTO159zbu1Q6PejPkmA-11" vertex="1" connectable="0">
          <mxGeometry x="0.0727" y="-11" relative="1" as="geometry">
            <mxPoint as="offset" />
          </mxGeometry>
        </mxCell>
        <mxCell id="nWTO159zbu1Q6PejPkmA-15" value="" style="html=1;verticalAlign=bottom;endArrow=block;edgeStyle=elbowEdgeStyle;elbow=vertical;curved=0;rounded=0;" parent="1" source="aM9ryv3xv72pqoxQDRHE-2" target="nWTO159zbu1Q6PejPkmA-14" edge="1">
          <mxGeometry relative="1" as="geometry">
            <mxPoint x="95" y="120" as="sourcePoint" />
            <Array as="points" />
            <mxPoint x="285" y="120" as="targetPoint" />
          </mxGeometry>
        </mxCell>
        <mxCell id="nWTO159zbu1Q6PejPkmA-14" value="" style="rounded=0;whiteSpace=wrap;html=1;rotation=90;" parent="1" vertex="1">
          <mxGeometry x="270" y="120" width="25" height="7.5" as="geometry" />
        </mxCell>
        <mxCell id="nWTO159zbu1Q6PejPkmA-17" value="" style="html=1;verticalAlign=bottom;endArrow=open;dashed=1;endSize=8;edgeStyle=elbowEdgeStyle;elbow=vertical;curved=0;rounded=0;" parent="1" source="aM9ryv3xv72pqoxQDRHE-5" target="nWTO159zbu1Q6PejPkmA-16" edge="1">
          <mxGeometry x="-0.2105" y="100" relative="1" as="geometry">
            <mxPoint x="89" y="190" as="targetPoint" />
            <Array as="points" />
            <mxPoint x="290" y="190" as="sourcePoint" />
            <mxPoint x="1" as="offset" />
          </mxGeometry>
        </mxCell>
        <mxCell id="nWTO159zbu1Q6PejPkmA-16" value="" style="rounded=0;whiteSpace=wrap;html=1;rotation=90;" parent="1" vertex="1">
          <mxGeometry x="270" y="186.25" width="25" height="7.5" as="geometry" />
        </mxCell>
        <mxCell id="nWTO159zbu1Q6PejPkmA-19" value="" style="html=1;verticalAlign=bottom;endArrow=open;dashed=1;endSize=8;edgeStyle=elbowEdgeStyle;elbow=vertical;curved=0;rounded=0;" parent="1" source="nWTO159zbu1Q6PejPkmA-16" target="nWTO159zbu1Q6PejPkmA-18" edge="1">
          <mxGeometry x="-0.2105" y="100" relative="1" as="geometry">
            <mxPoint x="89" y="190" as="targetPoint" />
            <Array as="points" />
            <mxPoint x="279" y="190" as="sourcePoint" />
            <mxPoint x="1" as="offset" />
          </mxGeometry>
        </mxCell>
        <mxCell id="nWTO159zbu1Q6PejPkmA-18" value="" style="rounded=0;whiteSpace=wrap;html=1;rotation=90;" parent="1" vertex="1">
          <mxGeometry x="85" y="186.25" width="25" height="7.5" as="geometry" />
        </mxCell>
        <mxCell id="b6WKDw-HmWE7x-4iwqxq-2" value="" style="endArrow=classic;html=1;rounded=0;" edge="1" parent="1" target="b6WKDw-HmWE7x-4iwqxq-1">
          <mxGeometry width="50" height="50" relative="1" as="geometry">
            <mxPoint x="490.11" y="230" as="sourcePoint" />
            <mxPoint x="289.9988888888889" y="230" as="targetPoint" />
          </mxGeometry>
        </mxCell>
        <mxCell id="b6WKDw-HmWE7x-4iwqxq-1" value="" style="rounded=0;whiteSpace=wrap;html=1;rotation=90;" vertex="1" parent="1">
          <mxGeometry x="477.5" y="230" width="25" height="7.5" as="geometry" />
        </mxCell>
        <mxCell id="b6WKDw-HmWE7x-4iwqxq-4" value="" style="endArrow=classic;html=1;rounded=0;" edge="1" parent="1">
          <mxGeometry width="50" height="50" relative="1" as="geometry">
            <mxPoint x="685.5" y="250" as="sourcePoint" />
            <mxPoint x="290" y="250" as="targetPoint" />
          </mxGeometry>
        </mxCell>
        <mxCell id="b6WKDw-HmWE7x-4iwqxq-5" value="Starten" style="edgeLabel;html=1;align=center;verticalAlign=middle;resizable=0;points=[];" vertex="1" connectable="0" parent="b6WKDw-HmWE7x-4iwqxq-4">
          <mxGeometry x="0.0727" y="-11" relative="1" as="geometry">
            <mxPoint x="87" y="-1" as="offset" />
          </mxGeometry>
        </mxCell>
        <mxCell id="b6WKDw-HmWE7x-4iwqxq-6" value="" style="endArrow=classic;html=1;rounded=0;" edge="1" parent="1" target="aM9ryv3xv72pqoxQDRHE-5">
          <mxGeometry width="50" height="50" relative="1" as="geometry">
            <mxPoint x="691" y="274" as="sourcePoint" />
            <mxPoint x="494.9988888888889" y="270" as="targetPoint" />
          </mxGeometry>
        </mxCell>
        <mxCell id="b6WKDw-HmWE7x-4iwqxq-7" value="stoppen" style="edgeLabel;html=1;align=center;verticalAlign=middle;resizable=0;points=[];" vertex="1" connectable="0" parent="b6WKDw-HmWE7x-4iwqxq-6">
          <mxGeometry x="0.0727" y="-11" relative="1" as="geometry">
            <mxPoint x="84" as="offset" />
          </mxGeometry>
        </mxCell>
      </root>
    </mxGraphModel>
  </diagram>
</mxfile>
